<svg width="40" height="40" viewBox="0 0 40 40" fill="none" xmlns="http://www.w3.org/2000/svg">
<path d="M20.2833 0.000204878C19.964 0.00733811 19.66 0.154091 19.4363 0.409002C19.2126 0.663912 19.0872 1.00669 19.0868 1.36383V27.3037C19.0868 27.6654 19.2153 28.0122 19.4439 28.2679C19.6726 28.5237 19.9827 28.6673 20.3061 28.6673C20.6295 28.6673 20.9396 28.5237 21.1683 28.2679C21.3969 28.0122 21.5254 27.6654 21.5254 27.3037V1.36383C21.5254 1.18275 21.4932 1.00348 21.4306 0.836478C21.368 0.669475 21.2763 0.518087 21.1608 0.391149C21.0454 0.26421 20.9084 0.164264 20.7581 0.0971415C20.6077 0.0300194 20.4468 -0.00293386 20.285 0.000204878H20.2833ZM38.7452 7.77107C38.586 7.77586 38.4292 7.81538 38.2835 7.88744L27.8138 13.1147C27.5997 13.2231 27.4181 13.3983 27.2907 13.6192C27.1634 13.84 27.0956 14.0973 27.0956 14.3601C27.0956 14.623 27.1634 14.8802 27.2907 15.1011C27.4181 15.322 27.5997 15.4971 27.8138 15.6056L38.2835 20.8492C38.5771 20.9866 38.9072 20.9902 39.2031 20.8592C39.4991 20.7281 39.7375 20.4728 39.8674 20.1478C39.9973 19.8228 40.0084 19.4539 39.8984 19.1199C39.7883 18.7858 39.5659 18.5132 39.2785 18.3601L31.301 14.3638L39.2785 10.3802C39.5729 10.2319 39.803 9.95953 39.9187 9.6224C40.0344 9.28527 40.0263 8.91066 39.8962 8.58016C39.7973 8.33337 39.6351 8.12494 39.4302 7.98125C39.2253 7.83755 38.9869 7.76322 38.7452 7.77107ZM1.24107 17.151C1.05321 17.1478 0.867232 17.1931 0.697561 17.2834C0.52789 17.3736 0.379096 17.5063 0.262731 17.6713C0.146366 17.8362 0.0655611 18.029 0.0265904 18.2345C-0.0123804 18.4401 -0.00846854 18.6529 0.0380222 18.8565C2.93021 31.3037 12.9984 40 24.5119 40C24.8355 40 25.1458 39.8562 25.3746 39.6003C25.6034 39.3444 25.732 38.9974 25.732 38.6355C25.732 38.2736 25.6034 37.9265 25.3746 37.6706C25.1458 37.4147 24.8355 37.2709 24.5119 37.2709C19.4559 37.2727 14.5423 35.3989 10.5406 31.9429C6.53898 28.4869 3.67544 23.644 2.39859 18.1728C2.33159 17.8849 2.1822 17.6293 1.9732 17.4451C1.76421 17.261 1.50709 17.1565 1.24107 17.151Z" fill="black"/>
</svg>
