<svg width="38" height="37" viewBox="0 0 38 37" fill="none" xmlns="http://www.w3.org/2000/svg">
<path d="M35.1871 0H2.80547C1.2543 0 0 1.18756 0 2.65582V34.1874C0 35.6556 1.2543 36.8504 2.80547 36.8504H35.1871C36.7383 36.8504 38 35.6556 38 34.1946V2.65582C38 1.18756 36.7383 0 35.1871 0ZM11.2738 31.402H5.6332V13.8117H11.2738V31.402ZM8.45352 11.415C6.64258 11.415 5.18047 9.9971 5.18047 8.24815C5.18047 6.4992 6.64258 5.08132 8.45352 5.08132C10.257 5.08132 11.7191 6.4992 11.7191 8.24815C11.7191 9.98991 10.257 11.415 8.45352 11.415ZM32.3816 31.402H26.7484V22.8516C26.7484 20.8147 26.7113 18.1877 23.8168 18.1877C20.8852 18.1877 20.4398 20.4117 20.4398 22.7076V31.402H14.8141V13.8117H20.2172V16.2156H20.2914C21.041 14.8337 22.8816 13.3727 25.6203 13.3727C31.3277 13.3727 32.3816 17.0145 32.3816 21.7504V31.402Z" fill="white"/>
</svg>
