<svg width="80" height="80" viewBox="0 0 80 80" fill="none" xmlns="http://www.w3.org/2000/svg">
<mask id="mask0_26_46" style="mask-type:luminance" maskUnits="userSpaceOnUse" x="2" y="2" width="76" height="76">
<path d="M2.35376 2.35454H77.6338V77.6345H2.35376V2.35454Z" fill="white"/>
</mask>
<g mask="url(#mask0_26_46)">
<path d="M77.6338 67.1791C77.6338 72.9547 72.954 77.6345 67.1783 77.6345H12.8094C7.03584 77.6345 2.35376 72.9547 2.35376 67.1791V12.8102C2.35376 7.03454 7.03584 2.35454 12.8094 2.35454H67.1783C72.954 2.35454 77.6338 7.03454 77.6338 12.8102V67.1791Z" fill="black"/>
</g>
<path d="M58.8773 43.3404C57.5181 41.4583 55.5525 40.1619 53.0223 39.4719C53.0223 39.4719 55.1552 38.6981 57.0789 35.8125C58.2291 33.9723 58.8146 31.7556 58.8146 29.1627C58.8146 24.6669 57.1835 21.2165 53.9214 18.8536C50.6594 16.4906 46.9789 14.9013 40.7264 14.9013H21.1746V65.0879H42.985C48.9027 65.0461 53.3569 63.7706 56.3889 61.324C59.4002 58.8356 60.9058 55.1552 60.9058 50.2411C60.9058 47.5227 60.2366 45.2225 58.8773 43.3404ZM33.7212 23.2658C33.7212 23.2658 42.4412 23.2658 42.6085 23.2658C45.7871 23.2658 48.3591 25.8377 48.3591 29.0163C48.3591 32.1948 45.7871 34.7669 42.6085 34.7669C42.4412 34.7669 33.7212 34.7669 33.7212 34.7669V23.2658ZM44.1769 56.7236H33.7212V44.1769H44.1769C47.6481 44.1769 50.4502 46.979 50.4502 50.4502C50.4502 53.9215 47.6481 56.7236 44.1769 56.7236Z" fill="#FF0054"/>
</svg>
