<svg width="80" height="80" viewBox="0 0 80 80" fill="none" xmlns="http://www.w3.org/2000/svg">
<mask id="mask0_26_24" style="mask-type:luminance" maskUnits="userSpaceOnUse" x="6" y="2" width="68" height="76">
<path d="M6.03564 2.05104H73.9556V77.931H6.03564V2.05104Z" fill="white"/>
</mask>
<g mask="url(#mask0_26_24)">
<path d="M73.9455 2.05081H6.0459L12.0369 69.9435L39.9957 77.9308L67.9544 69.9435L73.9455 2.05081Z" fill="black"/>
</g>
<path d="M39.9966 8.04285V71.742L62.3635 65.352L67.3562 8.04285H39.9966Z" fill="black"/>
<path d="M58.1697 18.0267H39.9966V26.014H49.7822L49.183 34.0013H39.9966V41.9888H48.7837L48.1845 50.9746L39.9966 53.7701V62.1569L55.7733 56.9651L57.1712 34.0013L58.1697 18.0267Z" fill="#FF0054"/>
<path d="M39.9965 18.0267V26.014H22.2227L21.6235 18.0267H39.9965ZM30.81 34.0013L31.2094 41.9888H39.9965V34.0013H30.81ZM31.6087 45.9823H23.6206L24.2198 56.9651L39.9965 62.1569V53.7701L31.8085 50.9746L31.6087 45.9823Z" fill="#FF0054"/>
</svg>
