<svg width="88" height="56" viewBox="0 0 88 56" fill="none" xmlns="http://www.w3.org/2000/svg">
<g clip-path="url(#clip0_3_93)">
<path d="M88 54.0736C84.799 54.9503 82.819 54.112 81.0429 51.2388L68.4092 32.4092L66.5829 29.8019L51.8293 51.3014C50.1436 53.888 48.3755 55.0129 45.2293 54.0978L64.1218 26.7773L46.5328 2.09895C49.5575 1.46544 51.6478 1.78753 53.5037 4.70622L66.6074 23.7705L79.8074 4.81002C81.4983 2.22338 83.3166 1.24077 86.3526 2.19352L79.5328 11.9343L70.2928 24.8953C69.1926 26.3763 69.3437 27.3902 70.3562 28.82L88 54.0736ZM0.0224401 26.3209L1.5675 18.1322C5.77501 1.92689 23.0176 -4.80707 34.9088 5.20606C41.858 11.0953 43.5852 19.4262 43.2413 28.7582H4.07023C3.48217 45.5557 14.7048 55.6933 29.0124 50.5214C34.031 48.7055 36.9872 44.4715 38.4669 39.1752C39.218 36.521 40.4601 36.1057 42.776 36.8644C41.594 43.4888 38.9262 49.0226 33.2885 52.4859C24.8656 57.6699 12.8417 55.9933 6.51752 48.7887C2.74957 44.608 1.19328 39.3117 0.495001 33.6471C0.384781 32.7107 0.165 31.8191 0 30.9218C0.01452 29.3888 0.0224401 27.8566 0.0224401 26.3237V26.3209ZM4.14151 25.1953H39.5394C39.3084 13.0492 32.2879 4.42181 22.6928 4.34858C12.1605 4.2597 4.59757 12.6816 4.14085 25.1953H4.14151Z" fill="black"/>
</g>
<defs>
<clipPath id="clip0_3_93">
<rect width="88" height="55" fill="white" transform="translate(0 0.5)"/>
</clipPath>
</defs>
</svg>
