<svg width="35" height="37" viewBox="0 0 35 37" fill="none" xmlns="http://www.w3.org/2000/svg">
<path d="M17.7479 0.0001883C17.4685 0.00674432 17.2025 0.141623 17.0068 0.375906C16.811 0.610189 16.7013 0.925226 16.7009 1.25347V25.0943C16.7009 25.4267 16.8133 25.7455 17.0134 25.9805C17.2135 26.2156 17.4849 26.3476 17.7678 26.3476C18.0508 26.3476 18.3222 26.2156 18.5222 25.9805C18.7223 25.7455 18.8347 25.4267 18.8347 25.0943V1.25347C18.8347 1.08705 18.8065 0.92228 18.7518 0.768791C18.697 0.615302 18.6168 0.476164 18.5157 0.359498C18.4147 0.242831 18.2949 0.150972 18.1633 0.0892809C18.0317 0.0275902 17.891 -0.00269645 17.7493 0.0001883H17.7479ZM33.9021 7.14225C33.7628 7.14664 33.6255 7.18297 33.4981 7.2492L24.337 12.0535C24.1497 12.1531 23.9908 12.3141 23.8794 12.5171C23.768 12.7201 23.7087 12.9566 23.7087 13.1981C23.7087 13.4397 23.768 13.6761 23.8794 13.8791C23.9908 14.0821 24.1497 14.2431 24.337 14.3428L33.4981 19.1621C33.755 19.2884 34.0438 19.2917 34.3027 19.1713C34.5617 19.0508 34.7703 18.8162 34.884 18.5175C34.9977 18.2188 35.0074 17.8797 34.9111 17.5727C34.8148 17.2657 34.6201 17.0151 34.3686 16.8744L27.3883 13.2015L34.3686 9.5402C34.6263 9.40393 34.8276 9.15362 34.9289 8.84377C35.0301 8.53392 35.023 8.18962 34.9092 7.88586C34.8226 7.65904 34.6807 7.46748 34.5014 7.33541C34.3222 7.20335 34.1136 7.13503 33.9021 7.14225ZM1.08593 15.7632C0.921563 15.7603 0.758828 15.8019 0.610366 15.8848C0.461904 15.9677 0.331709 16.0897 0.229889 16.2413C0.12807 16.393 0.0573659 16.5701 0.0232666 16.759C-0.0108328 16.9479 -0.00740997 17.1435 0.0332694 17.3306C2.56393 28.7706 11.3736 36.7632 21.4479 36.7632C21.731 36.7632 22.0026 36.6311 22.2028 36.3959C22.403 36.1607 22.5155 35.8417 22.5155 35.5091C22.5155 35.1765 22.403 34.8575 22.2028 34.6223C22.0026 34.3871 21.731 34.255 21.4479 34.255C17.0239 34.2567 12.7245 32.5344 9.22304 29.3581C5.72161 26.1817 3.21601 21.7307 2.09877 16.7023C2.04014 16.4376 1.90942 16.2028 1.72655 16.0335C1.54369 15.8642 1.31871 15.7682 1.08593 15.7632Z" fill="white"/>
</svg>
