<svg width="43" height="39" viewBox="0 0 43 39" fill="none" xmlns="http://www.w3.org/2000/svg">
<path fill-rule="evenodd" clip-rule="evenodd" d="M21.2841 0C9.51455 0 0 8.91058 0 19.9342C0 28.7459 6.0963 36.2049 14.5535 38.8448C15.6108 39.0433 15.9982 38.4159 15.9982 37.8882C15.9982 37.426 15.9633 35.842 15.9633 34.1915C10.0426 35.3799 8.80964 31.8152 8.80964 31.8152C7.85814 29.5049 6.44832 28.9112 6.44832 28.9112C4.51047 27.69 6.58947 27.69 6.58947 27.69C8.73906 27.8221 9.867 29.7362 9.867 29.7362C11.7696 32.7723 14.8354 31.9144 16.0687 31.3863C16.2447 30.0991 16.8089 29.2081 17.408 28.7131C12.6858 28.251 7.71742 26.5349 7.71742 18.8779C7.71742 16.6996 8.56261 14.9175 9.90186 13.5315C9.69056 13.0366 8.95036 10.99 10.1136 8.25079C10.1136 8.25079 11.9107 7.72264 15.9629 10.297C17.6977 9.86063 19.4869 9.63866 21.2841 9.63679C23.0812 9.63679 24.9132 9.86806 26.6049 10.297C30.6575 7.72264 32.4546 8.25079 32.4546 8.25079C33.6179 10.99 32.8772 13.0366 32.6659 13.5315C34.0405 14.9175 34.8508 16.6996 34.8508 18.8779C34.8508 26.5349 29.8824 28.2178 25.125 28.7131C25.9004 29.3401 26.5696 30.528 26.5696 32.4094C26.5696 35.0826 26.5348 37.228 26.5348 37.8878C26.5348 38.4159 26.9225 39.0433 27.9795 38.8453C36.4366 36.2045 42.5329 28.7459 42.5329 19.9342C42.5678 8.91058 33.0184 0 21.2841 0Z" fill="white"/>
</svg>
