<svg width="80" height="80" viewBox="0 0 80 80" fill="none" xmlns="http://www.w3.org/2000/svg">
<mask id="mask0_26_8" style="mask-type:luminance" maskUnits="userSpaceOnUse" x="6" y="1" width="68" height="78">
<path d="M6.32935 1.75914H73.6893V78.2391H6.32935V1.75914Z" fill="white"/>
</mask>
<g mask="url(#mask0_26_8)">
<path d="M12.444 70.5692L6.31006 1.79445H73.7082L67.5694 70.5597L39.9661 78.2057L12.444 70.5692Z" fill="black"/>
</g>
<path d="M62.3122 66.1807L67.5601 7.41867H40.0095V72.363L62.3122 66.1807Z" fill="black"/>
<path d="M39.9806 15.8528H18.8506L21.127 41.3606H40.0093V32.9264H28.8448L28.0731 24.2893H40.0093V15.8528H39.9806ZM40.0093 54.8045L39.9735 54.8141L30.5764 52.2783L29.9793 45.5514H21.5043L22.6868 58.7949L39.971 63.5708L40.0093 63.5587V54.8045Z" fill="#FF0054"/>
<path d="M39.9806 41.3606H50.3712L49.4158 52.2972L40.0046 54.8356V63.6112L57.3031 58.8187L59.6202 32.9216H40.0094L39.9806 41.3606ZM60.9148 18.1166L61.1154 15.8528H39.9758V24.2868H60.3558L60.5231 22.391L60.9148 18.1166Z" fill="#FF0054"/>
</svg>
