<svg width="80" height="80" viewBox="0 0 80 80" fill="none" xmlns="http://www.w3.org/2000/svg">
<mask id="mask0_26_17" style="mask-type:luminance" maskUnits="userSpaceOnUse" x="2" y="2" width="76" height="76">
<path d="M2.44946 2.44977H77.5695V77.5698H2.44946V2.44977Z" fill="white"/>
</mask>
<g mask="url(#mask0_26_17)">
<path d="M2.44946 2.44977H77.5695V77.5698H2.44946V2.44977Z" fill="black"/>
</g>
<path d="M51.5656 58.6787C53.0095 61.0242 54.5787 63.2714 57.9027 63.2714C60.6947 63.2714 62.1595 61.8839 62.1595 59.9642C62.1595 57.6667 60.6445 56.8508 57.5731 55.5133L55.8891 54.7954C51.0291 52.7339 47.797 50.1506 47.797 44.6939C47.797 39.665 51.6468 35.8381 57.6627 35.8381C61.9466 35.8381 65.0245 37.3217 67.2447 41.2071L61.9989 44.5604C60.8449 42.4987 59.597 41.6871 57.6627 41.6871C55.6887 41.6871 54.4389 42.9327 54.4389 44.5604C54.4389 46.5719 55.6908 47.3858 58.5808 48.6314L60.2647 49.3494C65.9927 51.7885 69.2229 54.28 69.2229 59.8806C69.2229 65.9154 64.4568 69.2227 58.0591 69.2227C51.8012 69.2227 48.2477 66.0823 46.2695 62.1948L51.5656 58.6787ZM27.3893 58.8498C28.4451 60.7404 30.0499 62.1948 32.3576 62.1948C34.5654 62.1948 35.8362 61.3225 35.8362 57.9317V35.836H42.791V59.0002C42.791 66.0258 38.7158 69.2227 32.7645 69.2227C27.3872 69.2227 23.506 65.5794 21.9243 62.1948L27.3893 58.8498Z" fill="#FF0054"/>
</svg>
