<svg width="140" height="80" viewBox="0 0 140 80" fill="none" xmlns="http://www.w3.org/2000/svg">
<path d="M18.8382 6.872L20.1099 9.60533C20.3867 10.0984 20.709 10.5561 21.0712 10.9707C22.1364 12.188 23.1502 13.464 24.0579 14.8307C26.2139 18.0667 27.6687 21.66 28.7082 25.5507C29.3312 27.9267 29.6696 30.3613 29.6952 32.8253C29.8002 40.1893 27.5906 46.5133 23.1222 51.7693C22.3982 52.6025 21.6163 53.3672 20.7842 54.056C20.3409 54.056 20.1344 53.656 19.9524 53.3133C19.6024 52.6467 19.4064 51.9173 19.3026 51.176C19.1462 50.2853 19.0424 49.3947 19.0949 48.4733V48.0573C19.0692 47.968 18.6796 7.08133 18.8347 6.87333L18.8382 6.872Z" fill="black"/>
<path d="M18.8382 6.784C18.7857 6.664 18.7332 6.75467 18.6819 6.81333C18.7075 7.40667 18.5255 7.94133 18.2385 8.44667C17.927 8.95333 17.5105 9.33733 17.0952 9.75333C14.7829 12.04 12.9652 14.8013 11.5092 17.8893C9.58654 22.0467 8.57387 26.5 8.28921 31.192C8.16087 32.8853 8.75587 38.8533 9.22487 40.5747C10.4965 45.148 12.7832 48.9773 15.7582 52.3027C16.4862 53.1027 17.2655 53.8467 18.0705 54.5587C18.3039 54.5587 18.3307 54.3213 18.382 54.1427C18.4844 53.7635 18.5624 53.3762 18.6154 52.984C18.8487 51.5 18.9794 50.0147 19.1345 48.5307L18.8487 6.784H18.8382Z" fill="black"/>
<path d="M20.1134 55.8667C20.1659 55.184 20.4634 54.62 20.7633 54.056C20.4518 53.9093 20.2173 53.6107 20.0353 53.2827C19.8789 52.9853 19.7494 52.616 19.6456 52.3027C19.2816 51.056 19.2023 49.7493 19.0996 48.472V47.6987C18.9713 47.8187 18.9433 48.8267 18.9433 48.976C18.8651 50.3413 18.7099 51.6787 18.4766 52.984C18.3984 53.5173 18.3483 54.0533 18.0613 54.528C18.0613 54.588 18.0613 54.648 18.0869 54.736C18.5536 56.3093 18.6843 57.9133 18.7636 59.5467V60.14C18.7636 60.852 18.7379 60.704 19.2571 60.94C19.4648 61.0293 19.7004 61.06 19.9069 61.2373C20.0633 61.2373 20.0889 61.0907 20.0889 60.9707L20.0108 59.9907V57.2573C19.9851 56.7827 20.0633 56.3067 20.1158 55.8613L20.1134 55.8667Z" fill="black"/>
<path d="M40.1516 43.4485V46.2763C40.1486 46.3883 40.1546 46.5004 40.1697 46.6113C40.2047 46.9462 40.4001 47.1504 40.6875 47.2444C40.9556 47.3186 41.2281 47.3745 41.5031 47.4118C41.6623 47.4309 41.7154 47.5044 41.7335 47.6841C41.7516 48.3172 41.6985 48.3921 41.1147 48.354C39.7529 48.2791 38.3897 48.2614 37.0279 48.354H36.8984C36.4738 48.373 36.4389 48.3349 36.4389 47.8883C36.4389 47.8135 36.457 47.7209 36.457 47.646C36.457 47.5098 36.545 47.4418 36.6693 47.4418C36.9541 47.405 37.2182 47.3301 37.4848 47.2743C37.8564 47.1817 38.0674 46.9394 38.1036 46.5486C38.1554 46.1211 38.1554 45.6745 38.1554 45.2457L38.1735 40.2599C38.1794 40.1153 38.1459 39.9719 38.0772 39.8465C38.0084 39.7211 37.9071 39.619 37.7852 39.5519C37.465 39.3649 37.1265 39.2151 36.7754 39.1053C36.6693 39.0686 36.5631 39.0509 36.4751 38.9937C36.2162 38.863 36.2097 38.622 36.457 38.4722C36.545 38.4178 36.6512 38.3796 36.7573 38.3606C37.8309 38.1939 38.8857 37.9134 39.9056 37.5233C40.1179 37.4484 40.171 37.4688 40.1904 37.6907C40.2085 37.8269 40.1904 37.9902 40.1723 38.1182C40.1373 38.3606 40.1373 38.6016 40.1373 38.8262C40.1373 38.9188 40.1555 39.0127 40.2435 39.0686C40.3315 39.1244 40.4208 39.0686 40.5024 39.0141C40.8739 38.7146 41.2455 38.4368 41.6519 38.1972C42.2345 37.8623 42.8559 37.5641 43.529 37.4715C44.3446 37.3599 45.0501 37.5832 45.6702 38.1414C45.9265 38.3827 46.1523 38.6577 46.342 38.9596C46.5194 39.2319 46.5362 39.2387 46.7666 39.0522C47.4398 38.5308 48.1466 38.0665 48.9078 37.7316C49.7039 37.3776 50.5182 37.3231 51.3311 37.6199C52.1622 37.9358 52.7292 38.5498 53.0658 39.3871C53.3506 40.057 53.4723 40.7486 53.4723 41.4702V46.456C53.4723 46.791 53.6017 47.0006 53.915 47.164C54.2516 47.3002 54.6231 47.3682 54.9765 47.4431C55.207 47.4976 55.207 47.4976 55.207 47.7427C55.172 48.3553 55.1189 48.3935 54.5519 48.3553C53.1321 48.2716 51.7089 48.2716 50.289 48.3553C50.0042 48.3744 50.0042 48.3744 49.9887 48.0762V47.9836C49.9706 47.4799 49.9706 47.4799 50.4314 47.371L50.891 47.2403C51.0467 47.2017 51.1855 47.1092 51.2851 46.9775C51.3847 46.8459 51.4392 46.6828 51.4399 46.5146L51.4917 45.1191L51.4567 41.473C51.4431 41.1474 51.3775 40.8266 51.2625 40.524C50.8198 39.3885 49.8476 38.9801 48.9091 39.0917C48.201 39.1666 47.5822 39.4634 46.9983 39.8923C46.8741 39.9848 46.786 40.0965 46.8042 40.283C46.9634 41.4743 46.8559 42.6656 46.8754 43.8556V46.4424C46.8754 46.9081 47.0527 47.1313 47.4773 47.243L48.2929 47.4295C48.4172 47.4486 48.4871 47.5044 48.4871 47.6528V47.789C48.4689 48.3104 48.4353 48.3336 47.9382 48.3281C46.5233 48.2532 45.107 48.2736 43.7102 48.3281C43.2313 48.3472 43.1924 48.2913 43.2144 47.7835C43.2326 47.484 43.2662 47.4676 43.5329 47.4118L44.1154 47.3002C44.6332 47.1885 44.8235 46.9843 44.8585 46.407L44.9103 45.1599L44.8753 41.4199C44.8404 40.9542 44.7459 40.5077 44.5038 40.0801C44.1504 39.3912 43.5976 39.0386 42.8403 39.0005C42.0791 38.946 41.4073 39.2428 40.7691 39.6132C40.3263 39.8855 40.1322 40.2081 40.1671 40.7486V43.4648L40.1516 43.4485ZM73.4819 43.5615V46.1851C73.4847 46.3717 73.4964 46.558 73.5168 46.7433C73.5244 46.8669 73.5699 46.9845 73.6464 47.0785C73.723 47.1726 73.8265 47.2379 73.9414 47.2648C74.2467 47.3584 74.5612 47.4145 74.8787 47.4322C75.056 47.4513 75.091 47.5248 75.1091 47.6746V47.8053C75.091 48.4561 75.0211 48.531 74.4191 48.4942C73.0728 48.4016 71.7304 48.4193 70.3853 48.4942L69.8675 48.5133C69.7614 48.5133 69.7381 48.4588 69.7083 48.3826C69.6566 48.1249 69.6566 47.8587 69.7083 47.6011C69.7264 47.4894 69.7963 47.4649 69.9025 47.4336C70.1614 47.3968 70.3815 47.341 70.6274 47.2975C71.0701 47.1858 71.2294 46.9979 71.2462 46.5159L71.298 44.953V40.3756C71.298 40.0407 71.1737 39.8364 70.8915 39.6867C70.5731 39.5001 70.2365 39.3708 69.8818 39.2401C69.7756 39.2033 69.6695 39.1652 69.5814 39.1094C69.351 38.9419 69.3225 38.7009 69.5465 38.5144C69.6469 38.4276 69.7703 38.3753 69.8999 38.3647C71.0326 38.1781 72.1291 37.9181 73.1906 37.4715C73.3149 37.4171 73.3679 37.4525 73.421 37.5641C73.4741 37.6757 73.4922 37.8064 73.4728 37.9358L73.421 38.8099C73.421 38.9215 73.3692 39.0822 73.456 39.1257C73.5621 39.2006 73.6333 39.0332 73.7213 38.9896C74.2437 38.5287 74.8207 38.1411 75.4379 37.8364C75.9868 37.5641 76.5512 37.3898 77.1894 37.4279C78.3752 37.5028 79.2244 38.1359 79.772 39.2333C80.0568 39.8106 80.1785 40.4423 80.2315 41.0945L80.2833 42.456L80.3015 46.5677C80.3196 46.8836 80.4257 47.0891 80.7261 47.2008C81.0374 47.3099 81.357 47.391 81.6814 47.4431C81.9662 47.4799 81.9817 47.5357 81.9999 47.8148V47.9074C81.9649 48.5405 81.9287 48.5582 81.3267 48.5201C80.0068 48.4457 78.6841 48.4457 77.3642 48.5201C77.1868 48.5391 77.0107 48.5201 76.8463 48.5391C76.7402 48.5391 76.669 48.5201 76.6522 48.4084C76.6172 48.1661 76.581 47.9251 76.634 47.6637C76.6522 47.5521 76.7052 47.4962 76.8282 47.4772L77.6438 47.341C77.9286 47.2661 78.0865 47.0687 78.1227 46.7964L78.1577 46.275L78.1396 42.3865C78.1396 41.94 78.1215 41.4934 78.0334 41.0468C77.8211 40.0938 77.1311 39.413 76.1952 39.3177C75.3796 39.2251 74.6418 39.4484 73.966 39.9127C73.6294 40.136 73.487 40.4518 73.487 40.8426V43.6527C73.487 43.5983 73.487 43.5983 73.5052 43.5983L73.4819 43.5615Z" fill="black"/>
<path d="M125.297 38.2952C125.103 36.9364 124.624 35.7274 123.792 34.6668C123.068 33.7298 122.131 33.0002 121.067 32.5456C119.954 32.0623 118.767 31.9125 117.564 31.8757C117.069 31.8567 110.311 31.9683 109.815 31.8757C109.691 31.8567 109.603 31.8948 109.531 32.0064C109.443 32.1426 109.353 32.2855 109.3 32.4339C109.088 32.9377 109.088 32.8996 109.601 32.9731C110.025 33.048 110.432 33.0847 110.839 33.2154C111.211 33.3461 111.476 33.5694 111.564 33.9969C111.599 34.2012 111.636 40.75 111.636 43.8025L111.564 45.9809C111.546 46.1483 111.529 46.3158 111.476 46.4642C111.405 46.6875 111.282 46.8726 111.07 46.9679C110.836 47.0835 110.584 47.1528 110.327 47.1722C109.848 47.2266 109.778 47.247 109.619 47.8053L109.567 48.0095C109.532 48.2518 109.549 48.2886 109.779 48.2886L115.069 48.343L117.14 48.3063L118.573 48.1198C120.2 47.8039 121.651 47.0959 122.889 45.9618C123.596 45.3051 124.173 44.5085 124.587 43.6173C125.083 42.5757 125.295 41.4389 125.349 40.2871C125.437 39.6363 125.4 38.9664 125.297 38.2966V38.2952ZM122.731 40.9365C122.66 42.1278 122.431 43.281 121.847 44.3225C121.104 45.6813 120.042 46.6303 118.574 46.9639C117.937 47.1 117.3 47.1681 116.632 47.0755C116.153 47.021 115.695 46.9639 115.252 46.7964C114.456 46.4969 114.173 45.9795 114.156 45.1626L114.138 33.9438C114.138 33.274 114.423 33.1269 114.881 33.1065C115.571 33.0521 116.279 33.0698 116.969 33.1433C117.704 33.218 118.424 33.4013 119.11 33.6879C119.62 33.9112 120.092 34.2192 120.508 34.6001C121.464 35.4578 122.101 36.5334 122.45 37.7996C122.735 38.8235 122.787 39.865 122.735 40.9065L122.731 40.9365ZM140 42.7609C140 42.6493 140 42.5567 139.982 42.445C139.823 41.4212 139.309 40.6397 138.514 40.0447C138.001 39.654 137.417 39.3939 136.815 39.2074C136.709 39.1706 136.621 39.1325 136.515 39.1148C136.533 39.0222 136.586 39.0032 136.639 38.9841C136.993 38.7976 137.329 38.5934 137.63 38.3143C138.179 37.8309 138.536 37.2346 138.726 36.5089C138.832 36.1182 138.832 35.7274 138.797 35.3176C138.769 34.8382 138.637 34.3718 138.414 33.9529C138.19 33.5341 137.88 33.1736 137.505 32.8982C136.69 32.2651 135.736 32.0051 134.746 31.986C132.835 31.9492 130.907 31.986 128.998 31.986C128.449 31.986 127.901 32.0228 127.334 31.9315C127.228 31.9125 127.075 31.8771 126.998 32.0064C126.868 32.2488 126.713 32.4898 126.661 32.7689C126.643 32.8996 126.679 32.9731 126.82 32.9922L128.041 33.1787C128.52 33.2536 128.857 33.5327 128.89 33.9792C128.925 34.2879 128.942 34.5984 128.942 34.9091L128.907 38.3878L128.889 45.2715C128.889 45.68 128.837 46.0721 128.765 46.4805C128.747 46.6102 128.695 46.7318 128.613 46.8309C128.532 46.9299 128.425 47.002 128.305 47.0387C127.952 47.1504 127.615 47.262 127.244 47.262C127.144 47.2521 127.045 47.278 126.961 47.3354C126.878 47.3927 126.815 47.4783 126.784 47.5779C126.713 47.7454 126.655 47.9319 126.625 48.0993C126.59 48.3226 126.643 48.3989 126.855 48.3716C127.015 48.3526 132.853 48.5023 133.949 48.3907C134.604 48.3158 135.244 48.2232 135.895 48.019C137.008 47.6473 138.036 47.1068 138.849 46.1946C139.522 45.4499 139.911 44.5567 139.946 43.5152C139.997 43.2728 139.997 43.0318 139.997 42.7704L140 42.7609ZM131.42 35.1365L131.472 33.6484C131.472 33.3693 131.578 33.2399 131.843 33.1828C132.268 33.0902 132.692 33.1283 133.117 33.146C133.542 33.1828 133.948 33.2386 134.373 33.3693C135.149 33.6116 135.753 34.0773 136.107 34.8574C136.268 35.2121 136.353 35.5999 136.355 35.9929C136.373 36.5144 136.336 37.0167 136.142 37.5178C135.842 38.2067 135.366 38.6533 134.674 38.784C133.983 38.9147 132.021 38.8589 131.72 38.8589C131.455 38.8589 131.435 38.8221 131.435 38.543V36.7907C131.394 36.2459 131.388 35.6986 131.417 35.1529L131.42 35.1365ZM137.168 45.1463C136.867 45.9836 136.318 46.5622 135.54 46.8754C135.116 47.0428 134.691 47.1477 134.246 47.1177C133.697 47.0986 133.149 47.1177 132.602 47.0061C131.859 46.8386 131.522 46.0939 131.469 45.5547C131.381 44.6057 131.434 43.6377 131.417 42.9311V40.4749C131.417 40.1754 131.452 40.0842 131.754 40.0842L133.417 40.1033L134.55 40.2394C135.346 40.4259 136.071 40.7432 136.638 41.3926C137.098 41.9141 137.346 42.5458 137.399 43.2347C137.451 43.8855 137.417 44.5186 137.187 45.1326L137.168 45.1463Z" fill="black"/>
<path d="M92.2177 39.541L92.6772 39.6159C93.1731 39.6349 93.7569 39.4484 93.9329 38.7227C94.03 38.3761 94.03 38.0074 93.9329 37.6607C93.8268 37.6607 93.7737 37.7533 93.7206 37.7914C93.4553 38.0147 93.1549 38.1454 92.8365 38.1822C92.1996 38.2571 91.5627 38.219 90.9439 37.978L90.0765 37.6621C89.4716 37.4537 88.835 37.366 88.1995 37.4034C87.2972 37.4783 86.448 37.7942 85.6518 38.2407C84.8026 38.7241 84.202 39.4497 83.9172 40.4368C83.7579 41.0141 83.7398 41.6077 83.811 42.2041C83.9884 43.5628 84.6602 44.5118 85.8628 45.0142C85.934 45.0333 85.9871 45.0687 86.057 45.0891C86.2162 45.1817 86.2344 45.2756 86.092 45.4049L85.6492 45.7208L84.5877 46.4097C84.3223 46.5772 84.2874 46.7093 84.3754 47.0047C84.4807 47.3523 84.6767 47.6618 84.9411 47.8978C85.1839 48.1169 85.4589 48.293 85.7554 48.4193C85.9496 48.5119 85.9496 48.5555 85.7735 48.7188L84.7638 49.4813C84.4272 49.7536 84.0906 50.0259 83.8084 50.3744C83.6122 50.5953 83.4707 50.8637 83.3967 51.1558C83.3226 51.4479 83.3182 51.7547 83.3838 52.0491C83.5154 52.6949 83.837 53.2808 84.3029 53.7237C84.763 54.1717 85.3224 54.4914 85.9302 54.6536C86.9205 54.9531 87.947 54.9695 88.9555 54.7653C90.4053 54.4861 91.674 53.8122 92.6708 52.6631C93.3608 51.9007 93.7672 51.0075 93.8035 49.9401C93.8421 49.3228 93.6713 48.711 93.3214 48.2137C92.9716 47.7164 92.4653 47.3656 91.8928 47.2239L90.9374 47.0374L88.0182 46.7651C87.6998 46.746 87.3813 46.6902 87.1159 46.5227C86.7794 46.2995 86.6913 45.8719 86.9036 45.5928C87.0629 45.3886 87.257 45.2579 87.5056 45.2388L88.0713 45.1844C89.1901 45.0647 90.2404 44.5614 91.0604 43.7521C91.4982 43.3259 91.8113 42.777 91.9627 42.17C92.175 41.3695 92.175 40.5362 91.9976 39.7193C91.9458 39.5151 91.9627 39.496 92.2099 39.5328L92.2177 39.541ZM87.881 48.8087C87.9872 48.8278 88.0933 48.8087 88.1995 48.8087C88.9425 48.8455 89.7037 48.9013 90.4287 49.1082C90.6653 49.1818 90.8961 49.2751 91.1186 49.3873C91.8267 49.7958 92.0921 50.5038 92.0028 51.2662C91.8966 52.1035 91.4539 52.6985 90.7639 53.0906C90.3044 53.3629 89.7904 53.4814 89.2597 53.5372C89.0655 53.5562 88.8882 53.5372 88.694 53.5372C88.0752 53.5562 87.4732 53.4827 86.8894 53.2213C86.4829 53.0538 86.1463 52.8129 85.846 52.4766C85.2272 51.8258 84.9398 50.6345 85.8641 49.6664C86.4298 49.1218 87.068 48.7365 87.881 48.8087ZM89.8979 43.0033C89.5264 43.989 88.7121 44.2872 87.8991 44.1565C87.1561 44.0448 86.6072 43.6173 86.2551 42.9093C85.7955 41.9604 85.6725 40.976 85.9366 39.9508C86.1308 39.1883 86.5735 38.6111 87.3516 38.4804C88.3419 38.2938 89.2934 38.6669 89.793 39.7084C90.0519 40.2122 90.1646 40.8249 90.1646 41.6989C90.1464 42.0529 90.0765 42.5363 89.8992 43.0019L89.8979 43.0033ZM67.6087 41.7371C67.4494 40.7323 67.096 39.8201 66.441 39.0576C65.4675 37.9221 64.2299 37.4238 62.8318 37.4198C61.6111 37.4007 60.4629 37.7737 59.435 38.4436C58.4245 39.0796 57.6839 40.0982 57.365 41.2905C57.0647 42.3702 57.0802 43.4689 57.3133 44.5649C57.932 47.5057 60.0913 48.7692 62.6726 48.584C63.4338 48.5296 64.1587 48.2682 64.8474 47.9142C65.874 47.4104 66.6171 46.6112 67.1297 45.5506C67.5362 44.6765 67.7122 43.7453 67.6954 42.6847L67.6074 41.7357L67.6087 41.7371ZM65.0973 45.8679C64.9708 46.2865 64.731 46.6573 64.4073 46.9349C64.0836 47.2125 63.6899 47.3848 63.2746 47.4309C62.4979 47.5425 61.7703 47.3383 61.1166 46.8536C60.6446 46.4885 60.2625 46.01 60.002 45.458C59.2771 43.895 59.1528 42.2585 59.523 40.5839C59.6422 40.0656 59.9001 39.5941 60.2661 39.2251C60.9211 38.592 61.681 38.4436 62.5315 38.6301C63.3471 38.8167 63.9646 39.2809 64.4733 39.9889C64.9821 40.6969 65.2164 41.5138 65.3575 42.3715C65.4287 42.799 65.4287 43.2456 65.4455 43.5247C65.4455 44.4179 65.3743 45.1585 65.1089 45.8692L65.0973 45.8679ZM106.263 41.8868C106.134 40.8072 105.751 39.8214 105.024 39.0032C104.069 37.9058 102.83 37.4402 101.452 37.4211C100.266 37.4021 99.1693 37.756 98.1609 38.3701C97.0282 39.0781 96.2502 40.0815 95.9498 41.4403C95.5912 42.9227 95.7415 44.4906 96.3744 45.8679C96.957 47.1708 97.9486 48.0081 99.2586 48.3798C100.709 48.7883 102.09 48.6031 103.434 47.9142C104.601 47.3192 105.432 46.3893 105.91 45.1231C106.195 44.3784 106.298 43.5792 106.316 42.6479C106.335 42.4804 106.298 42.1823 106.265 41.8855L106.263 41.8868ZM103.822 45.6269C103.537 46.6317 102.938 47.2825 101.929 47.4322C101.186 47.5439 100.479 47.3573 99.8412 46.9108C99.2923 46.52 98.9039 45.9986 98.6204 45.3859C98.302 44.7351 98.1246 44.0462 98.0547 43.3396C97.9486 42.4655 97.9486 41.6104 98.1428 40.735C98.1798 40.5624 98.2331 40.3941 98.302 40.2326C98.7978 38.9297 99.8943 38.3347 101.186 38.6329C102.054 38.8371 102.707 39.3408 103.203 40.1033C103.682 40.848 103.911 41.6663 104.019 42.554C104.07 42.908 104.09 43.2796 104.07 43.5955C104.07 44.3212 104.019 44.9911 103.812 45.6418L103.822 45.6269Z" fill="black"/>
</svg>
