<svg width="140" height="80" viewBox="0 0 140 80" fill="none" xmlns="http://www.w3.org/2000/svg">
<g clip-path="url(#clip0_3_83)">
<path d="M33.0341 20.8573H59.4394V22.8444H35.4546V37.8003H58.0091V39.7875H35.4546V56.2076H59.7144V58.1947H33.0341V20.8573ZM61.8049 20.8573H64.6104L77.0429 37.2774L89.7505 20.8573L107.035 0L78.6382 39.0031L93.2712 58.1947H90.3556L77.0429 40.7288L63.6752 58.1947H60.8147L75.5576 39.0031L61.8049 20.8573ZM94.3164 22.8444V20.8573H124.407V22.8444H110.545V58.1947H108.124V22.8444H94.3164ZM0 20.8573H3.02561L44.7469 79.97L27.5055 58.1947L2.53051 23.6811L2.42048 58.1947H0L0 20.8573ZM124.164 55.6079C123.669 55.6079 123.298 55.2451 123.298 54.7763C123.298 54.3074 123.669 53.9446 124.164 53.9446C124.664 53.9446 125.029 54.3074 125.029 54.7763C125.029 55.2451 124.664 55.6079 124.164 55.6079ZM126.542 53.42H127.837C127.855 54.0842 128.367 54.5307 129.121 54.5307C129.962 54.5307 130.439 54.0507 130.439 53.1521V47.459H131.758V53.1576C131.758 54.7763 130.769 55.7084 129.132 55.7084C127.596 55.7084 126.542 54.8042 126.542 53.42ZM133.483 53.3474H134.79C134.902 54.1121 135.691 54.5977 136.827 54.5977C137.887 54.5977 138.664 54.0786 138.664 53.3642C138.664 52.7502 138.169 52.3818 137.045 52.1307L135.95 51.8795C134.413 51.539 133.713 50.8358 133.713 49.6525C133.713 48.2181 134.949 47.2636 136.803 47.2636C138.528 47.2636 139.788 48.2181 139.865 49.5744H138.581C138.458 48.832 137.775 48.3688 136.786 48.3688C135.744 48.3688 135.049 48.8432 135.049 49.5688C135.049 50.1437 135.496 50.473 136.603 50.7186L137.539 50.9362C139.282 51.3213 140 51.9911 140 53.2023C140 54.7428 138.74 55.7084 136.727 55.7084C134.843 55.7084 133.577 54.7874 133.483 53.3474Z" fill="black"/>
</g>
<defs>
<clipPath id="clip0_3_83">
<rect width="140" height="80" fill="white"/>
</clipPath>
</defs>
</svg>
