<svg width="80" height="80" viewBox="0 0 80 80" fill="none" xmlns="http://www.w3.org/2000/svg">
<path d="M36.8703 3.70664C38.7285 2.65435 41.0974 2.64976 42.9091 3.70664L70.6495 19.3456C72.3843 20.3212 73.5455 22.256 73.5293 24.256V55.6129C73.541 57.6964 72.266 59.6731 70.4357 60.63L42.8441 76.1971C42.7266 76.2618 42.6074 76.3227 42.486 76.3796C42.3647 76.4364 42.2416 76.4893 42.1166 76.5381C41.9918 76.5866 41.8653 76.6312 41.7376 76.6714C41.6097 76.7116 41.4807 76.7477 41.3503 76.7793C41.2201 76.811 41.0891 76.8383 40.957 76.8612C40.8249 76.8843 40.6922 76.9029 40.5589 76.9168C40.4257 76.931 40.292 76.9406 40.158 76.9458C40.0243 76.951 39.8903 76.9518 39.7564 76.9481C39.6222 76.9443 39.4887 76.9362 39.3551 76.9237C39.2218 76.911 39.0889 76.8939 38.9566 76.8725C38.8243 76.851 38.6928 76.8252 38.5622 76.795C38.4316 76.7648 38.3022 76.7304 38.1739 76.6914C38.0455 76.6527 37.9187 76.6096 37.7932 76.5623C37.6678 76.515 37.5443 76.4637 37.4222 76.4081C37.3001 76.3527 37.1801 76.2931 37.0622 76.2296C36.9441 76.166 36.8282 76.0987 36.7147 76.0275L28.4349 71.2427C27.8705 70.9058 27.2366 70.6387 26.837 70.0929C27.1901 69.6191 27.8172 69.5587 28.328 69.3496C29.4801 68.9827 30.5345 68.4206 31.5937 67.8258C31.8607 67.6402 32.1882 67.7098 32.4437 67.8771L39.5041 71.9604C40.0082 72.2508 40.5191 71.8675 40.9512 71.6235L68.0435 56.3329C68.378 56.1704 68.5637 55.8173 68.536 55.4504V24.3952C68.573 23.9773 68.3339 23.5962 67.9553 23.4266L40.4332 7.92706C40.3937 7.89976 40.3524 7.8756 40.3095 7.85456C40.2664 7.83351 40.222 7.81581 40.1762 7.80143C40.1305 7.78726 40.0839 7.77643 40.0366 7.76914C39.9891 7.76185 39.9416 7.7581 39.8935 7.75789C39.8455 7.75789 39.798 7.76143 39.7505 7.76851C39.703 7.7756 39.6566 7.78622 39.6107 7.80039C39.5649 7.81435 39.5203 7.83185 39.4772 7.85289C39.4341 7.87372 39.3928 7.89768 39.3532 7.92476L11.8705 23.4568C11.4991 23.6264 11.2435 24.0027 11.2899 24.4208V55.4758C11.2574 55.8429 11.4526 56.1889 11.7893 56.3468L19.1332 60.4931C20.5128 61.2362 22.206 61.6543 23.7249 61.1085C23.8074 61.0775 23.8885 61.0433 23.9685 61.006C24.0482 60.9687 24.1266 60.9285 24.2035 60.8854C24.2803 60.8421 24.3555 60.796 24.4289 60.7473C24.5022 60.6983 24.5735 60.6466 24.643 60.5923C24.7124 60.5381 24.7797 60.4812 24.8447 60.4216C24.9099 60.3623 24.9726 60.3004 25.033 60.2362C25.0935 60.1721 25.1514 60.1056 25.2068 60.0371C25.2622 59.9685 25.3149 59.8979 25.3649 59.8254C25.4149 59.7527 25.462 59.6783 25.5064 59.6023C25.5507 59.526 25.5922 59.4483 25.6307 59.3689C25.6693 59.2896 25.7047 59.2089 25.737 59.1268C25.7693 59.045 25.7985 58.9618 25.8245 58.8777C25.8505 58.7933 25.8735 58.7083 25.893 58.6223C25.9126 58.5364 25.9289 58.4498 25.9418 58.3627C25.9549 58.2754 25.9645 58.1879 25.971 58.1C25.9774 58.0121 25.9803 57.9239 25.9801 57.8358L25.987 26.9666C25.9545 26.5089 26.3864 26.1304 26.8301 26.1768H30.3603C30.8249 26.1652 31.1895 26.6577 31.1268 27.1175L31.1197 58.1818C31.1222 60.9412 29.9887 63.9423 27.4362 65.2964C24.2916 66.9223 20.4037 66.5808 17.296 65.0177L9.39949 60.651C7.54137 59.7218 6.29428 57.715 6.30574 55.6339V24.2768C6.30678 24.1502 6.31199 24.0235 6.32137 23.8973C6.33074 23.771 6.34428 23.645 6.36199 23.5196C6.3797 23.3941 6.40158 23.2693 6.42762 23.1454C6.45366 23.0214 6.48387 22.8985 6.51803 22.7764C6.55241 22.6546 6.59053 22.5337 6.63283 22.4143C6.67512 22.295 6.72116 22.1771 6.77137 22.0606C6.82137 21.9443 6.87533 21.8298 6.93303 21.7168C6.99074 21.6041 7.0522 21.4935 7.1172 21.3848C7.1822 21.276 7.25095 21.1696 7.32303 21.0654C7.39533 20.9614 7.47074 20.8598 7.5497 20.7606C7.62866 20.6614 7.71074 20.5652 7.79616 20.4714C7.88137 20.3779 7.9697 20.2871 8.06116 20.1993C8.15241 20.1116 8.24658 20.0271 8.34366 19.9454C8.44053 19.8639 8.54012 19.7858 8.64241 19.7108C8.74449 19.636 8.84908 19.5646 8.95616 19.4966C9.06303 19.4287 9.17199 19.3646 9.28324 19.3039L36.8703 3.70664ZM44.8693 25.4429C48.8803 25.2106 53.1747 25.2896 56.7839 27.2662C59.5778 28.7806 61.127 31.9581 61.178 35.066C61.0991 35.4841 60.6624 35.7164 60.263 35.6862C59.1018 35.6837 57.9357 35.7025 56.7699 35.6791C56.2751 35.6977 55.9895 35.2425 55.9268 34.8058C55.5924 33.3193 54.7818 31.8489 53.3837 31.1312C51.2376 30.0558 48.7478 30.1091 46.4068 30.1325C44.6974 30.2254 42.8603 30.3716 41.4132 31.3752C40.2985 32.1371 39.9641 33.6979 40.3612 34.9104C40.7328 35.8 41.7616 36.0856 42.6001 36.3504C47.4357 37.6139 52.5568 37.5118 57.3018 39.1539C59.2643 39.8323 61.1851 41.1516 61.8587 43.2073C62.7366 45.9618 62.3532 49.2556 60.3953 51.4668C58.8068 53.2879 56.4935 54.2541 54.1826 54.8162C51.1099 55.5014 47.9235 55.5177 44.8043 55.211C41.8707 54.8766 38.8191 54.1054 36.5545 52.1079C34.6176 50.4262 33.6747 47.8062 33.7674 45.2791C33.7907 44.8516 34.2157 44.5543 34.6268 44.5891H38.1107C38.5799 44.5566 38.9235 44.9608 38.9468 45.4021C39.1628 46.7958 39.6947 48.3056 40.9301 49.1185C43.313 50.6562 46.3022 50.5493 49.0289 50.5935C51.2887 50.4935 53.8249 50.4633 55.6714 48.9675C56.6468 48.1152 56.9324 46.6912 56.6701 45.4648C56.3843 44.4289 55.2766 43.9481 54.3476 43.6066C49.5747 42.0968 44.3955 42.645 39.6691 40.9356C37.7507 40.2573 35.8949 38.9752 35.1587 37.0031C34.1299 34.2158 34.6014 30.7618 36.7682 28.625C38.8585 26.4998 41.9243 25.6798 44.8274 25.3871L44.8693 25.4429Z" fill="black"/>
</svg>
