<svg width="80" height="80" viewBox="0 0 80 80" fill="none" xmlns="http://www.w3.org/2000/svg">
<path d="M46.6968 39.9427C46.6968 40.0522 46.6941 40.162 46.6887 40.2714C46.6833 40.381 46.6754 40.4904 46.6645 40.5995C46.6539 40.7087 46.6404 40.8177 46.6243 40.926C46.6083 41.0345 46.5895 41.1427 46.5681 41.2502C46.5466 41.3579 46.5227 41.4647 46.496 41.5712C46.4693 41.6777 46.4402 41.7833 46.4083 41.8883C46.3764 41.9933 46.342 42.0972 46.3052 42.2006C46.2681 42.3039 46.2287 42.4062 46.1868 42.5075C46.1447 42.6089 46.1004 42.7091 46.0535 42.8083C46.0066 42.9075 45.9572 43.0054 45.9056 43.102C45.8539 43.1989 45.8 43.2943 45.7435 43.3883C45.687 43.4825 45.6285 43.5752 45.5675 43.6662C45.5066 43.7575 45.4435 43.847 45.3781 43.9352C45.3129 44.0233 45.2454 44.1097 45.1758 44.1945C45.1062 44.2793 45.0345 44.3625 44.961 44.4437C44.8872 44.525 44.8118 44.6043 44.7341 44.6818C44.6566 44.7595 44.5772 44.8352 44.496 44.9087C44.4147 44.9825 44.3316 45.0541 44.247 45.1237C44.1622 45.1933 44.0758 45.2606 43.9877 45.326C43.8995 45.3914 43.81 45.4545 43.7187 45.5154C43.6277 45.5764 43.535 45.635 43.4408 45.6914C43.3468 45.7479 43.2514 45.8018 43.1547 45.8535C43.0581 45.9054 42.9602 45.9545 42.861 46.0014C42.7618 46.0485 42.6616 46.0929 42.5604 46.1347C42.4589 46.1768 42.3566 46.2162 42.2535 46.2533C42.1502 46.2902 42.046 46.3245 41.9412 46.3564C41.8362 46.3883 41.7306 46.4175 41.6241 46.4441C41.5177 46.4708 41.4108 46.4947 41.3033 46.5162C41.1956 46.5377 41.0877 46.5564 40.9791 46.5725C40.8708 46.5885 40.7618 46.602 40.6527 46.6127C40.5437 46.6235 40.4343 46.6316 40.3247 46.6368C40.2152 46.6422 40.1056 46.645 39.996 46.645C39.8862 46.645 39.7766 46.6422 39.6672 46.6368C39.5577 46.6316 39.4483 46.6235 39.3391 46.6127C39.23 46.602 39.1212 46.5885 39.0127 46.5725C38.9043 46.5564 38.7962 46.5377 38.6887 46.5162C38.5812 46.4947 38.4741 46.4708 38.3679 46.4441C38.2614 46.4175 38.1558 46.3883 38.0508 46.3564C37.9458 46.3245 37.8418 46.2902 37.7385 46.2533C37.6352 46.2162 37.5329 46.1768 37.4316 46.1347C37.3304 46.0929 37.2302 46.0485 37.131 46.0014C37.0318 45.9545 36.9339 45.9054 36.8372 45.8535C36.7406 45.8018 36.6452 45.7479 36.551 45.6914C36.457 45.635 36.3643 45.5764 36.2731 45.5154C36.182 45.4545 36.0922 45.3914 36.0043 45.326C35.9162 45.2606 35.8297 45.1933 35.745 45.1237C35.6602 45.0541 35.5772 44.9825 35.496 44.9087C35.4147 44.8352 35.3354 44.7595 35.2577 44.6818C35.1802 44.6043 35.1045 44.525 35.031 44.4437C34.9572 44.3625 34.8858 44.2793 34.8162 44.1945C34.7466 44.1097 34.6791 44.0233 34.6137 43.9352C34.5485 43.847 34.4854 43.7575 34.4243 43.6662C34.3635 43.5752 34.3047 43.4825 34.2485 43.3883C34.192 43.2943 34.1381 43.1989 34.0864 43.102C34.0345 43.0054 33.9854 42.9075 33.9385 42.8083C33.8916 42.7091 33.847 42.6089 33.8052 42.5075C33.7633 42.4062 33.7237 42.3039 33.6868 42.2006C33.6497 42.0972 33.6154 41.9933 33.5837 41.8883C33.5518 41.7833 33.5225 41.6777 33.496 41.5712C33.4693 41.4647 33.4452 41.3579 33.4239 41.2502C33.4025 41.1427 33.3837 41.0345 33.3677 40.926C33.3516 40.8177 33.3381 40.7087 33.3275 40.5995C33.3166 40.4904 33.3085 40.381 33.3031 40.2714C33.2979 40.162 33.2952 40.0522 33.2952 39.9427C33.2952 39.8329 33.2979 39.7233 33.3031 39.6137C33.3085 39.5041 33.3166 39.395 33.3275 39.2858C33.3381 39.1766 33.3516 39.0677 33.3677 38.9591C33.3837 38.8508 33.4025 38.7427 33.4239 38.6352C33.4452 38.5275 33.4693 38.4206 33.496 38.3141C33.5225 38.2077 33.5518 38.102 33.5837 37.997C33.6154 37.892 33.6497 37.7879 33.6868 37.6847C33.7237 37.5814 33.7633 37.4791 33.8052 37.3777C33.847 37.2764 33.8916 37.1762 33.9385 37.077C33.9854 36.9779 34.0345 36.88 34.0864 36.7831C34.1381 36.6864 34.192 36.591 34.2485 36.4968C34.3047 36.4029 34.3635 36.3102 34.4243 36.2189C34.4854 36.1279 34.5485 36.0381 34.6137 35.95C34.6791 35.862 34.7466 35.7756 34.8162 35.6908C34.8858 35.606 34.9572 35.5229 35.031 35.4416C35.1045 35.3604 35.1802 35.281 35.2577 35.2033C35.3354 35.1258 35.4147 35.0502 35.496 34.9766C35.5772 34.9029 35.6602 34.8312 35.745 34.7616C35.8297 34.692 35.9162 34.6245 36.0043 34.5593C36.0922 34.4939 36.182 34.4308 36.2731 34.3697C36.3643 34.3089 36.457 34.2502 36.551 34.1939C36.6452 34.1375 36.7406 34.0835 36.8372 34.0316C36.9339 33.98 37.0318 33.9306 37.131 33.8837C37.2302 33.8368 37.3304 33.7925 37.4316 33.7504C37.5329 33.7085 37.6352 33.6691 37.7385 33.632C37.8418 33.5952 37.9458 33.5608 38.0508 33.5289C38.1558 33.497 38.2614 33.4679 38.3679 33.4412C38.4741 33.4145 38.5812 33.3904 38.6887 33.3691C38.7962 33.3477 38.9043 33.3289 39.0127 33.3129C39.1212 33.2968 39.23 33.2833 39.3391 33.2725C39.4483 33.2618 39.5577 33.2537 39.6672 33.2483C39.7766 33.2429 39.8862 33.2404 39.996 33.2404C40.1056 33.2404 40.2152 33.2429 40.3247 33.2483C40.4343 33.2537 40.5437 33.2618 40.6527 33.2725C40.7618 33.2833 40.8708 33.2968 40.9791 33.3129C41.0877 33.3289 41.1956 33.3477 41.3033 33.3691C41.4108 33.3904 41.5177 33.4145 41.6241 33.4412C41.7306 33.4679 41.8362 33.497 41.9412 33.5289C42.046 33.5608 42.1502 33.5952 42.2535 33.632C42.3566 33.6691 42.4589 33.7085 42.5604 33.7504C42.6616 33.7925 42.7618 33.8368 42.861 33.8837C42.9602 33.9306 43.0581 33.98 43.1547 34.0316C43.2514 34.0833 43.3468 34.1375 43.4408 34.1939C43.535 34.2502 43.6277 34.3089 43.7187 34.3697C43.81 34.4308 43.8995 34.4939 43.9877 34.5593C44.0758 34.6245 44.1622 34.692 44.247 34.7616C44.3316 34.8312 44.4147 34.9029 44.496 34.9764C44.5772 35.0502 44.6566 35.1258 44.7341 35.2033C44.8118 35.281 44.8872 35.3604 44.961 35.4416C45.0345 35.5229 45.1062 35.606 45.1758 35.6908C45.2454 35.7756 45.3129 35.862 45.3781 35.95C45.4435 36.0381 45.5066 36.1279 45.5675 36.2189C45.6285 36.3102 45.687 36.4029 45.7435 36.497C45.8 36.591 45.8539 36.6864 45.9056 36.7831C45.9572 36.88 46.0066 36.9779 46.0535 37.077C46.1004 37.1762 46.1447 37.2764 46.1868 37.3777C46.2287 37.4791 46.2681 37.5814 46.3052 37.6847C46.342 37.7879 46.3764 37.892 46.4083 37.997C46.4402 38.102 46.4693 38.2077 46.496 38.3141C46.5227 38.4206 46.5466 38.5275 46.5681 38.6352C46.5895 38.7427 46.6083 38.8508 46.6243 38.9591C46.6404 39.0677 46.6539 39.1766 46.6645 39.2858C46.6754 39.395 46.6833 39.5041 46.6887 39.6137C46.6941 39.7233 46.6968 39.8329 46.6968 39.9427Z" fill="black"/>
<mask id="mask0_26_33" style="mask-type:luminance" maskUnits="userSpaceOnUse" x="2" y="8" width="76" height="64">
<path d="M2.47559 8.16064H77.5156V71.894H2.47559V8.16064Z" fill="white"/>
</mask>
<g mask="url(#mask0_26_33)">
<path d="M39.9962 26.3147C48.993 26.3147 57.351 27.606 63.6528 29.776C71.2458 32.3906 75.9139 36.3535 75.9139 39.942C75.9139 43.6814 70.9666 47.8916 62.8128 50.5937C56.6487 52.6366 48.5368 53.7029 39.9962 53.7029C31.2401 53.7029 22.9487 52.702 16.7147 50.5714C8.82805 47.875 4.07764 43.6104 4.07764 39.942C4.07764 36.3827 8.53493 32.4502 16.021 29.8395C22.3462 27.6339 30.9101 26.3147 39.9955 26.3147H39.9962Z" stroke="black"/>
</g>
<path d="M28.1364 33.1663C32.631 25.3711 37.9245 18.7749 42.952 14.3982C49.0095 9.1257 54.7731 7.0607 57.8814 8.8532C61.1202 10.7213 62.2947 17.1117 60.5616 25.5267C59.2527 31.8884 56.1227 39.4492 51.856 46.8494C47.4816 54.4363 42.4727 61.1207 37.5133 65.4561C31.2381 70.9428 25.1712 72.9284 21.995 71.0957C18.912 69.3188 17.7333 63.4911 19.212 55.7009C20.4616 49.1184 23.5975 41.0394 28.1345 33.1678L28.1364 33.1663Z" stroke="black"/>
<path d="M28.1473 46.8689C23.6406 39.0825 20.5713 31.2002 19.2902 24.6577C17.7484 16.7752 18.8386 10.7485 21.9436 8.95018C25.1792 7.07664 31.3009 9.24998 37.7236 14.9541C42.5798 19.2669 47.5663 25.7541 51.8448 33.1466C56.2317 40.7262 59.5198 48.4052 60.7988 54.8675C62.4173 63.0456 61.1073 69.2937 57.9334 71.1321C54.8536 72.9154 49.2177 71.0275 43.2084 65.855C38.1311 61.4848 32.6988 54.7323 28.1469 46.8675L28.1473 46.8689Z" stroke="black"/>
</svg>
