<svg width="38" height="39" viewBox="0 0 38 39" fill="none" xmlns="http://www.w3.org/2000/svg">
<path fill-rule="evenodd" clip-rule="evenodd" d="M38 19.5C38 30.2696 29.4934 39 19 39C8.50659 39 0 30.2696 0 19.5C0 8.73045 8.50659 0 19 0C29.4934 0 38 8.73045 38 19.5ZM19.6809 14.3958C17.8328 15.1846 14.1394 16.8174 8.6005 19.2941C7.70107 19.6612 7.22991 20.0203 7.18702 20.3715C7.11453 20.9649 7.83863 21.1986 8.82466 21.5168C8.95879 21.5601 9.09776 21.605 9.24023 21.6525C10.2103 21.9761 11.5153 22.3548 12.1937 22.3698C12.8091 22.3834 13.4959 22.1231 14.2542 21.5887C19.4293 18.0034 22.1008 16.1912 22.2685 16.1521C22.3868 16.1246 22.5508 16.0899 22.6619 16.1912C22.773 16.2926 22.7621 16.4845 22.7503 16.536C22.6786 16.8499 19.8362 19.5619 18.3653 20.9654C17.9067 21.4029 17.5815 21.7133 17.515 21.7842C17.366 21.9429 17.2142 22.0931 17.0683 22.2375C16.167 23.1292 15.4912 23.7978 17.1057 24.8898C17.8816 25.4145 18.5025 25.8485 19.1219 26.2814C19.7983 26.7541 20.473 27.2257 21.3459 27.813C21.5683 27.9626 21.7807 28.118 21.9876 28.2694C22.7748 28.8453 23.482 29.3628 24.3558 29.2803C24.8635 29.2323 25.3879 28.7424 25.6542 27.2811C26.2837 23.8276 27.5209 16.345 27.8068 13.2616C27.8319 12.9914 27.8004 12.6457 27.7751 12.4939C27.7498 12.3422 27.6969 12.1259 27.5047 11.9658C27.277 11.7763 26.9256 11.7363 26.7684 11.7391C26.0538 11.7521 24.9574 12.1433 19.6809 14.3958Z" fill="white"/>
</svg>
